<?xml version="1.0" encoding="iso-8859-1"?>
<!-- Generator: Adobe Illustrator 19.0.0, SVG Export Plug-In . SVG Version: 6.00 Build 0)  -->
<svg version="1.1" id="Capa_1" xmlns="http://www.w3.org/2000/svg" xmlns:xlink="http://www.w3.org/1999/xlink" x="0px" y="0px"
	 viewBox="0 0 512 512" style="enable-background:new 0 0 512 512;" xml:space="preserve">
<path style="fill:#36D28F;" d="M458.039,406.893l-26.26-4.855c-1.82-0.336-3.545-0.902-5.167-1.642
	c-1.622,0.74-3.348,1.306-5.168,1.643l-26.248,4.853c-25.474,4.71-43.959,26.927-43.959,52.833v42.273H502v-42.272
	C502,433.82,483.514,411.603,458.039,406.893z"/>
<polygon style="fill:#FFFFFF;" points="403.75,387.217 390,379.353 356.39,398.575 390.007,452.331 403.754,430.339 383.89,398.575 
	"/>
<polygon style="fill:#FCB17E;" points="403.75,387.217 383.89,398.575 403.754,430.339 423.61,398.575 "/>
<path style="fill:#FFDFE0;" d="M413.333,374.453c20.41-8.982,34.667-29.37,34.667-53.1v-36.032h-69.333v36.032
	C378.667,345.082,392.924,365.471,413.333,374.453z"/>
<path style="fill:#898998;" d="M448,282.756c0-22.027-12.279-41.186-30.366-51.006c-23.048,11.248-38.935,34.894-38.966,62.26
	c11.794-3.54,22.452-10.445,30.531-20.087l0,0l38.8,22.795v-13.962H448z"/>
<path style="fill:#4DBAF6;" d="M190.039,406.893l-26.26-4.855c-3.117-0.576-5.97-1.8-8.456-3.498
	c-2.485,1.698-5.339,2.922-8.456,3.499l-26.248,4.853c-25.474,4.71-43.959,26.927-43.959,52.833v42.273H234v-42.272
	C234,433.82,215.514,411.603,190.039,406.893z"/>
<polygon style="fill:#FFFFFF;" points="137.44,388.217 121.889,379.353 88.39,398.575 122.007,452.331 137.504,427.54 
	119.39,398.575 "/>
<polygon style="fill:#FCB17E;" points="137.44,388.217 119.39,398.575 137.504,427.54 155.61,398.575 "/>
<path style="fill:#FFDFE0;" d="M144,375.022c21.12-8.667,36-29.426,36-53.669v-36.032h-72v36.032
	C108,345.596,122.88,366.355,144,375.022z"/>
<path style="fill:#FFB954;" d="M148.242,231.037C124.498,241.943,108,265.915,108,293.756v0.989
	c12.853-3.257,24.516-10.458,33.2-20.822l0,0l38.8,22.795v-13.962C180,260.171,167.083,240.616,148.242,231.037z"/>
<path style="fill:#FEDA9B;" d="M318.874,175.45c19.133-17.571,31.478-43.091,31.478-70.811c0-42.408-27.809-78.297-66.13-90.33
	c-38.322,12.034-66.13,47.923-66.13,90.33c0,27.72,12.345,53.24,31.478,70.811c11.367,10.439,17.839,25.185,17.659,40.643h33.986
	C301.035,200.635,307.507,185.889,318.874,175.45z"/>
<path style="fill:#6A80FF;" d="M301.167,247.144v-31.05H247.25v31.05c0,10.482,8.498,18.98,18.98,18.98h15.956
	C292.669,266.124,301.167,257.627,301.167,247.144z"/>
<path d="M395.65,496.447c-0.37-0.55-0.79-1.06-1.25-1.52c-2.32-2.32-5.77-3.39-9.02-2.73c-0.64,0.12-1.27,0.32-1.87,0.57
	c-0.61,0.25-1.19,0.56-1.73,0.92c-0.55,0.36-1.06,0.78-1.52,1.24s-0.88,0.97-1.24,1.52c-0.36,0.54-0.67,1.12-0.92,1.72
	c-0.25,0.61-0.44,1.24-0.57,1.88s-0.2,1.3-0.2,1.95c0,0.65,0.07,1.31,0.2,1.95s0.32,1.27,0.57,1.88c0.25,0.6,0.56,1.18,0.92,1.72
	c0.36,0.55,0.78,1.06,1.24,1.52s0.97,0.88,1.52,1.24c0.54,0.36,1.12,0.67,1.73,0.92c0.6,0.25,1.23,0.45,1.87,0.57
	c0.64,0.13,1.3,0.2,1.95,0.2c2.64,0,5.21-1.07,7.07-2.93c0.46-0.46,0.88-0.97,1.25-1.52c0.36-0.54,0.67-1.12,0.92-1.72
	c0.25-0.61,0.44-1.24,0.57-1.88s0.19-1.3,0.19-1.95c0-0.65-0.06-1.31-0.19-1.95s-0.32-1.27-0.57-1.88
	C396.32,497.567,396.01,496.987,395.65,496.447z"/>
<path d="M430.076,390.961c-0.365-0.31-0.748-0.605-1.166-0.866c-0.266-0.166-0.537-0.314-0.812-0.452
	c-2.699-2.217-4.397-5.555-4.443-9.24C444.15,368.676,458,346.608,458,321.353v-24.635v-11.397v-2.564c0-37.495-30.505-68-68-68
	s-68,30.505-68,68v2.564v11.397v24.635c0,25.25,13.844,47.313,34.33,59.042c-0.044,3.703-1.756,7.056-4.477,9.275
	c-0.258,0.132-0.515,0.27-0.766,0.427c-0.409,0.256-0.784,0.544-1.142,0.846c-1.091,0.589-2.282,1.028-3.556,1.263l-26.248,4.853
	C289.929,402.645,268,428.999,268,459.725v42.273c0,5.523,4.477,10,10,10h72.333c5.523,0,10-4.477,10-10s-4.477-10-10-10H288
	v-32.273c0-21.083,15.047-39.166,35.777-42.999l26.249-4.853c0.856-0.158,1.697-0.354,2.525-0.577l28.978,46.338
	c1.828,2.923,5.032,4.698,8.479,4.698s6.651-1.776,8.479-4.699L427.45,411.3c0.824,0.221,1.66,0.416,2.511,0.574l26.26,4.854
	c20.731,3.833,35.779,21.917,35.779,43v32.271h-67c-5.523,0-10,4.477-10,10s4.477,10,10,10h77c5.523,0,10-4.477,10-10v-42.271
	c0-30.726-21.929-57.081-52.143-62.667l-26.26-4.854C432.336,391.972,431.158,391.54,430.076,390.961z M342,282.756
	c0-26.467,21.533-48,48-48c25.261,0,46.026,19.613,47.867,44.411l-23.602-13.866c-4.211-2.475-9.593-1.544-12.73,2.199
	c-10.234,12.213-25.243,19.218-41.177,19.218H342v-1.397V282.756z M342,321.353v-14.635h18.358c18.993,0,37.026-7.251,50.641-20.14
	l27,15.863v18.912c0,26.467-21.533,48-48,48S342,347.82,342,321.353z M390.005,433.468l-20.72-33.134
	c2.916-3.644,5.042-7.921,6.158-12.566c4.693,1.028,9.56,1.585,14.558,1.585c4.992,0,9.855-0.556,14.544-1.582
	c1.117,4.648,3.247,8.928,6.167,12.574L390.005,433.468z"/>
<path d="M10,511.998h75.667c5.523,0,10-4.477,10-10s-4.477-10-10-10H20v-32.273c0-21.083,15.047-39.166,35.777-42.999l26.249-4.853
	c0.856-0.158,1.697-0.354,2.525-0.577l28.978,46.338c1.828,2.923,5.032,4.698,8.479,4.698s6.651-1.776,8.479-4.699l28.963-46.334
	c0.824,0.221,1.66,0.416,2.511,0.574l26.26,4.854c20.731,3.833,35.779,21.917,35.779,43v32.271h-68.39c-5.523,0-10,4.477-10,10
	s4.477,10,10,10H234c5.523,0,10-4.477,10-10v-42.271c0-30.726-21.929-57.081-52.143-62.667l-26.26-4.854
	c-1.26-0.233-2.438-0.665-3.52-1.244c-0.365-0.31-0.748-0.605-1.166-0.866c-0.266-0.166-0.537-0.314-0.812-0.452
	c-2.699-2.217-4.397-5.556-4.443-9.24C176.15,368.676,190,346.608,190,321.353v-24.635v-11.397v-2.564c0-37.495-30.505-68-68-68
	s-68,30.505-68,68v2.564v11.397v24.635c0,25.25,13.844,47.313,34.33,59.042c-0.044,3.703-1.756,7.056-4.476,9.275
	c-0.259,0.132-0.515,0.27-0.766,0.427c-0.409,0.256-0.784,0.544-1.142,0.846c-1.091,0.589-2.282,1.028-3.556,1.263l-26.248,4.853
	C21.929,402.645,0,428.999,0,459.725v42.273C0,507.52,4.477,511.998,10,511.998z M74,282.756c0-26.467,21.533-48,48-48
	c25.261,0,46.026,19.613,47.867,44.411l-23.602-13.866c-4.212-2.475-9.593-1.544-12.73,2.199
	c-10.234,12.213-25.243,19.218-41.177,19.218H74v-1.397V282.756z M74,321.353v-14.635h18.358c18.993,0,37.026-7.251,50.641-20.14
	l27,15.863v18.912c0,26.467-21.533,48-48,48S74,347.82,74,321.353z M122,389.353c4.992,0,9.855-0.556,14.544-1.582
	c1.117,4.648,3.247,8.928,6.167,12.574l-20.706,33.123l-20.72-33.134c2.916-3.644,5.042-7.921,6.158-12.566
	C112.135,388.796,117.003,389.353,122,389.353z"/>
<path d="M130.21,496.447c-0.37-0.55-0.79-1.06-1.25-1.52s-0.97-0.88-1.52-1.24c-0.54-0.36-1.12-0.67-1.72-0.92
	c-0.61-0.25-1.24-0.45-1.88-0.57c-1.28-0.26-2.61-0.26-3.9,0c-0.64,0.12-1.27,0.32-1.87,0.57c-0.61,0.25-1.19,0.56-1.73,0.92
	c-0.55,0.36-1.06,0.78-1.52,1.24s-0.88,0.97-1.24,1.52c-0.36,0.54-0.67,1.12-0.92,1.72c-0.25,0.61-0.45,1.24-0.57,1.88
	c-0.13,0.64-0.2,1.3-0.2,1.95c0,0.65,0.07,1.31,0.2,1.95c0.12,0.64,0.32,1.27,0.57,1.88c0.25,0.6,0.56,1.18,0.92,1.72
	c0.36,0.55,0.78,1.06,1.24,1.52s0.97,0.88,1.52,1.24c0.54,0.36,1.12,0.67,1.73,0.92c0.6,0.25,1.23,0.45,1.87,0.57
	c0.64,0.13,1.3,0.2,1.95,0.2c0.65,0,1.31-0.07,1.95-0.2c0.64-0.12,1.27-0.32,1.88-0.57c0.6-0.25,1.18-0.56,1.72-0.92
	c0.55-0.36,1.06-0.78,1.52-1.24s0.88-0.97,1.25-1.52c0.36-0.54,0.66-1.12,0.91-1.72c0.25-0.61,0.45-1.24,0.58-1.88
	s0.19-1.3,0.19-1.95c0-0.65-0.06-1.31-0.19-1.95s-0.33-1.27-0.58-1.88C130.87,497.567,130.57,496.987,130.21,496.447z"/>
<path d="M106.76,324.217c0.36-0.54,0.67-1.13,0.92-1.73s0.44-1.23,0.57-1.87c0.13-0.64,0.19-1.3,0.19-1.95
	c0-0.66-0.06-1.31-0.19-1.96c-0.13-0.64-0.32-1.26-0.57-1.87c-0.25-0.6-0.56-1.18-0.92-1.72c-0.37-0.55-0.78-1.06-1.25-1.52
	c-0.46-0.47-0.97-0.88-1.51-1.25c-0.55-0.36-1.13-0.67-1.73-0.92c-0.6-0.25-1.23-0.44-1.87-0.57c-1.29-0.26-2.62-0.26-3.91,0
	c-0.64,0.13-1.27,0.32-1.87,0.57c-0.6,0.25-1.18,0.56-1.73,0.92c-0.54,0.37-1.06,0.78-1.52,1.25c-0.46,0.46-0.88,0.97-1.24,1.52
	c-0.36,0.54-0.67,1.12-0.92,1.72c-0.25,0.61-0.44,1.23-0.57,1.87c-0.13,0.65-0.2,1.3-0.2,1.96c0,0.65,0.07,1.31,0.2,1.95
	s0.32,1.27,0.57,1.87s0.56,1.19,0.92,1.73s0.78,1.06,1.24,1.52c1.86,1.86,4.44,2.93,7.07,2.93c2.64,0,5.21-1.07,7.07-2.93
	C105.98,325.277,106.39,324.757,106.76,324.217z"/>
<path d="M136.32,322.487c0.25,0.6,0.56,1.19,0.92,1.73c0.37,0.54,0.78,1.06,1.25,1.52c1.86,1.86,4.43,2.93,7.07,2.93
	c2.63,0,5.21-1.07,7.07-2.93c0.46-0.46,0.88-0.98,1.24-1.52c0.36-0.54,0.67-1.13,0.92-1.73s0.44-1.23,0.57-1.87
	c0.13-0.64,0.2-1.3,0.2-1.95c0-0.66-0.07-1.31-0.2-1.96c-0.13-0.64-0.32-1.26-0.57-1.87c-0.25-0.6-0.56-1.18-0.92-1.72
	c-0.36-0.55-0.78-1.06-1.24-1.52c-0.46-0.47-0.97-0.88-1.52-1.25c-0.54-0.36-1.13-0.67-1.73-0.92s-1.23-0.44-1.87-0.57
	c-1.29-0.26-2.62-0.26-3.91,0c-0.64,0.13-1.26,0.32-1.87,0.57c-0.6,0.25-1.18,0.56-1.72,0.92c-0.55,0.37-1.06,0.78-1.52,1.25
	c-0.47,0.46-0.88,0.97-1.25,1.52c-0.36,0.54-0.67,1.12-0.92,1.72c-0.25,0.61-0.44,1.23-0.57,1.87c-0.13,0.65-0.19,1.3-0.19,1.96
	c0,0.65,0.06,1.31,0.19,1.95C135.88,321.257,136.07,321.887,136.32,322.487z"/>
<path d="M137.722,335.309c-3.905-3.905-10.237-3.905-14.143,0c-0.931,0.932-2.446,0.932-3.377,0c-3.905-3.905-10.237-3.905-14.143,0
	c-3.905,3.905-3.905,10.237,0,14.143c4.365,4.364,10.098,6.547,15.831,6.547s11.466-2.183,15.831-6.547
	C141.626,345.546,141.626,339.214,137.722,335.309z"/>
<path d="M373.51,325.737c0.47-0.46,0.88-0.98,1.25-1.52c0.36-0.54,0.67-1.13,0.92-1.73s0.44-1.23,0.57-1.87
	c0.13-0.64,0.19-1.3,0.19-1.95c0-0.66-0.06-1.31-0.19-1.96c-0.13-0.64-0.32-1.26-0.57-1.87c-0.25-0.6-0.56-1.18-0.92-1.72
	c-0.37-0.55-0.78-1.06-1.25-1.52c-0.46-0.47-0.97-0.88-1.52-1.25c-0.54-0.36-1.12-0.67-1.72-0.92s-1.23-0.44-1.87-0.57
	c-1.29-0.26-2.62-0.26-3.91,0c-0.64,0.13-1.27,0.32-1.87,0.57s-1.19,0.56-1.73,0.92c-0.55,0.37-1.06,0.78-1.52,1.25
	c-0.46,0.46-0.88,0.97-1.24,1.52c-0.36,0.54-0.67,1.12-0.92,1.72c-0.25,0.61-0.44,1.23-0.57,1.87c-0.13,0.65-0.2,1.3-0.2,1.96
	c0,0.65,0.07,1.31,0.2,1.95s0.32,1.27,0.57,1.87s0.56,1.19,0.92,1.73s0.78,1.06,1.24,1.52c1.86,1.86,4.44,2.93,7.07,2.93
	c0.66,0,1.31-0.07,1.96-0.2c0.64-0.13,1.27-0.32,1.87-0.57s1.18-0.56,1.72-0.92C372.54,326.617,373.05,326.197,373.51,325.737z"/>
<path d="M404.32,322.487c0.25,0.6,0.56,1.19,0.92,1.73c0.37,0.54,0.78,1.06,1.25,1.52c1.86,1.86,4.43,2.93,7.07,2.93
	c2.63,0,5.21-1.07,7.07-2.93c0.46-0.46,0.88-0.98,1.24-1.52c0.36-0.54,0.67-1.13,0.92-1.73s0.44-1.23,0.57-1.87
	c0.13-0.64,0.2-1.3,0.2-1.95c0-0.66-0.07-1.31-0.2-1.96c-0.13-0.64-0.32-1.26-0.57-1.87c-0.25-0.6-0.56-1.18-0.92-1.72
	c-0.36-0.55-0.78-1.06-1.24-1.52c-0.46-0.47-0.97-0.88-1.52-1.25c-0.54-0.36-1.13-0.67-1.73-0.92s-1.23-0.44-1.87-0.57
	c-1.29-0.26-2.62-0.26-3.91,0c-0.64,0.13-1.27,0.32-1.87,0.57s-1.18,0.56-1.72,0.92c-0.55,0.37-1.06,0.78-1.52,1.25
	c-0.47,0.46-0.88,0.97-1.25,1.52c-0.36,0.54-0.67,1.12-0.92,1.72c-0.25,0.61-0.44,1.23-0.57,1.87c-0.13,0.65-0.19,1.3-0.19,1.96
	c0,0.65,0.06,1.31,0.19,1.95C403.88,321.257,404.07,321.887,404.32,322.487z"/>
<path d="M405.722,335.309c-3.905-3.905-10.237-3.905-14.143,0c-0.931,0.932-2.446,0.932-3.377,0c-3.905-3.905-10.237-3.905-14.143,0
	c-3.905,3.905-3.905,10.237,0,14.143c4.365,4.364,10.098,6.547,15.831,6.547s11.466-2.183,15.831-6.547
	C409.626,345.546,409.626,339.214,405.722,335.309z"/>
<path d="M186.362,182.816c9.2,8.448,14.432,20.348,14.417,32.709c-0.011,0.19-0.029,0.377-0.029,0.569v31.051
	c0,15.979,13,28.98,28.98,28.98h52.457c15.979,0,28.98-13,28.98-28.98v-30.098c0.034-0.354,0.052-0.711,0.048-1.07
	c-0.146-12.522,5.111-24.609,14.423-33.161c22.062-20.26,34.714-48.755,34.714-78.177c0-57.511-46.658-104.452-103.993-104.638H256
	c-57.54,0-104.353,46.941-104.353,104.639C151.647,134.061,164.3,162.556,186.362,182.816z M282.187,256.124H229.73
	c-4.952,0-8.98-4.028-8.98-8.98v-21.051h70.417v21.051C291.167,252.096,287.138,256.124,282.187,256.124z M256,20h0.28
	c46.358,0.151,84.073,38.119,84.073,84.638c0,23.838-10.294,46.963-28.243,63.446c-10.966,10.07-18.05,23.545-20.203,38.008h-71.813
	c-2.154-14.463-9.238-27.938-20.204-38.008c-17.949-16.483-28.243-39.608-28.243-63.446C171.647,57.969,209.488,20,256,20z"/>
<path d="M217.13,88.828c0.25,0.6,0.56,1.19,0.92,1.73c0.37,0.54,0.78,1.06,1.24,1.52s0.98,0.88,1.52,1.24
	c0.55,0.36,1.13,0.67,1.73,0.92c0.6,0.25,1.23,0.44,1.87,0.57c0.65,0.13,1.3,0.2,1.95,0.2c2.64,0,5.22-1.07,7.08-2.93
	c0.46-0.46,0.88-0.98,1.24-1.52c0.36-0.54,0.67-1.13,0.92-1.73c0.25-0.6,0.44-1.23,0.57-1.87s0.19-1.3,0.19-1.95
	c0-0.66-0.06-1.31-0.19-1.96c-0.13-0.64-0.32-1.27-0.57-1.87c-0.25-0.6-0.56-1.18-0.92-1.73c-0.36-0.54-0.78-1.05-1.24-1.52
	c-2.33-2.32-5.78-3.38-9.03-2.73c-0.64,0.13-1.27,0.32-1.87,0.57c-0.6,0.25-1.18,0.56-1.73,0.92c-0.54,0.37-1.06,0.78-1.52,1.24
	c-0.46,0.47-0.87,0.98-1.24,1.52c-0.36,0.55-0.67,1.13-0.92,1.73c-0.25,0.6-0.44,1.23-0.57,1.87c-0.13,0.65-0.19,1.3-0.19,1.96
	c0,0.65,0.06,1.31,0.19,1.95C216.69,87.597,216.88,88.228,217.13,88.828z"/>
<path d="M278.97,88.828c0.25,0.6,0.56,1.19,0.92,1.73c0.37,0.54,0.78,1.06,1.24,1.52c0.47,0.46,0.98,0.88,1.52,1.24
	c0.55,0.36,1.13,0.67,1.73,0.92c0.61,0.25,1.23,0.44,1.87,0.57c0.65,0.13,1.31,0.2,1.96,0.2s1.31-0.07,1.95-0.2s1.27-0.32,1.87-0.57
	s1.18-0.56,1.73-0.92c0.54-0.36,1.06-0.78,1.52-1.24s0.88-0.98,1.24-1.52c0.36-0.54,0.67-1.13,0.92-1.73
	c0.25-0.6,0.44-1.23,0.57-1.87s0.2-1.3,0.2-1.95c0-0.66-0.07-1.31-0.2-1.96c-0.13-0.64-0.32-1.27-0.57-1.87
	c-0.25-0.6-0.56-1.18-0.92-1.73c-0.36-0.54-0.78-1.05-1.24-1.52c-0.46-0.46-0.98-0.87-1.52-1.24c-0.55-0.36-1.13-0.67-1.73-0.92
	s-1.23-0.44-1.87-0.57c-1.29-0.26-2.62-0.26-3.91,0c-0.64,0.13-1.26,0.32-1.87,0.57c-0.6,0.25-1.18,0.56-1.73,0.92
	c-0.54,0.37-1.05,0.78-1.52,1.24c-0.46,0.47-0.87,0.98-1.24,1.52c-0.36,0.55-0.67,1.13-0.92,1.73c-0.25,0.6-0.44,1.23-0.57,1.87
	c-0.13,0.65-0.19,1.3-0.19,1.96c0,0.65,0.06,1.31,0.19,1.95C278.53,87.597,278.72,88.228,278.97,88.828z"/>
<path d="M230.934,135.289c7.265,7.265,16.808,10.897,26.352,10.897c9.543,0,19.086-3.633,26.351-10.897
	c3.905-3.905,3.905-10.237,0-14.143c-3.905-3.905-10.237-3.905-14.143,0c-6.73,6.732-17.685,6.733-24.417,0
	c-3.905-3.905-10.237-3.905-14.143,0C227.029,125.051,227.029,131.383,230.934,135.289z"/>
<path d="M396.796,102.156c0,5.523,4.477,10,10,10H448c5.523,0,10-4.477,10-10s-4.477-10-10-10h-41.204
	C401.273,92.156,396.796,96.633,396.796,102.156z"/>
<path d="M387.467,54.545c2.561,0,5.122-0.978,7.075-2.932l13.752-13.766c3.904-3.907,3.9-10.239-0.006-14.142
	c-3.908-3.904-10.239-3.901-14.143,0.006l-13.752,13.766c-3.904,3.907-3.9,10.239,0.006,14.142
	C382.352,53.57,384.909,54.545,387.467,54.545z"/>
<path d="M393.814,180.304c1.952,1.95,4.51,2.925,7.067,2.925c2.561,0,5.122-0.978,7.075-2.933c3.903-3.907,3.9-10.239-0.007-14.142
	l-13.673-13.659c-3.907-3.903-10.239-3.901-14.142,0.007c-3.903,3.907-3.9,10.239,0.007,14.142L393.814,180.304z"/>
<path d="M64,112.156h41.204c5.523,0,10-4.477,10-10s-4.477-10-10-10H64c-5.523,0-10,4.477-10,10S58.477,112.156,64,112.156z"/>
<path d="M117.458,51.613c1.953,1.955,4.514,2.932,7.075,2.932c2.558,0,5.116-0.975,7.068-2.926
	c3.907-3.903,3.91-10.235,0.006-14.142l-13.752-13.766c-3.903-3.906-10.235-3.911-14.143-0.006
	c-3.907,3.903-3.91,10.235-0.006,14.142L117.458,51.613z"/>
<path d="M117.724,152.496l-13.673,13.659c-3.907,3.903-3.911,10.235-0.007,14.142c1.953,1.955,4.514,2.933,7.075,2.933
	c2.557,0,5.115-0.975,7.067-2.925l13.673-13.659c3.907-3.903,3.911-10.235,0.007-14.142
	C127.962,148.597,121.631,148.592,117.724,152.496z"/>
<g>
</g>
<g>
</g>
<g>
</g>
<g>
</g>
<g>
</g>
<g>
</g>
<g>
</g>
<g>
</g>
<g>
</g>
<g>
</g>
<g>
</g>
<g>
</g>
<g>
</g>
<g>
</g>
<g>
</g>
</svg>
