<svg height="496pt" viewBox="0 -40 496 496" width="496pt" xmlns="http://www.w3.org/2000/svg"><path d="m32 160h112v40h-112zm0 0" fill="#f0bc5e"/><path d="m464 304h-224v-112h224zm0 0" fill="#f0bc5e"/><path d="m472 128h-128v-11.929688c0-10.65625-7.160156-20.148437-17.40625-23.078124l-21.1875-6.046876c-10.246094-2.9375-17.40625-12.425781-17.40625-23.082031v-23.863281c0-22.054688-17.945312-40-40-40s-40 17.945312-40 40v23.863281c0 10.664063-7.160156 20.152344-17.398438 23.082031l-21.195312 6.046876c-10.246094 2.929687-17.40625 12.421874-17.40625 23.078124v11.929688h-128c-13.230469 0-24 10.769531-24 24v240c0 13.230469 10.769531 24 24 24h448c13.230469 0 24-10.769531 24-24v-240c0-13.230469-10.769531-24-24-24zm-304-11.929688c0-3.550781 2.382812-6.71875 5.800781-7.695312l21.191407-6.046875c17.078124-4.886719 29.007812-20.703125 29.007812-38.464844v-23.863281c0-13.230469 10.769531-24 24-24s24 10.769531 24 24v23.863281c0 17.761719 11.929688 33.578125 29.007812 38.464844l21.183594 6.046875c3.425782.976562 5.808594 4.136719 5.808594 7.695312v19.929688c0 4.40625-3.59375 8-8 8h-144c-4.40625 0-8-3.59375-8-8zm312 275.929688c0 4.40625-3.59375 8-8 8h-248v-16h-16v16h-184c-4.40625 0-8-3.59375-8-8v-240c0-4.40625 3.59375-8 8-8h129.472656c3.3125 9.289062 12.113282 16 22.527344 16h32v16h16v-16h96c10.414062 0 19.214844-6.710938 22.527344-16h129.472656c4.40625 0 8 3.59375 8 8zm0 0"/><path d="m256 40c0 4.417969-3.582031 8-8 8s-8-3.582031-8-8 3.582031-8 8-8 8 3.582031 8 8zm0 0"/><path d="m163.121094 321.710938-27.121094-7.742188v-2.128906c9.96875-7.511719 16-19.328125 16-31.832032v-14.335937c0-21.503906-16.007812-39.726563-36.449219-41.503906-11.183593-.976563-22.335937 2.800781-30.582031 10.351562-8.242188 7.550781-12.96875 18.304688-12.96875 29.480469v16c0 12.503906 6.03125 24.328125 16 31.832031v2.128907l-27.121094 7.75c-17.007812 4.855468-28.878906 20.609374-28.878906 38.289062v24h160v-24c0-17.679688-11.871094-33.433594-28.878906-38.289062zm12.878906 46.289062h-128v-8c0-10.574219 7.105469-20 17.28125-22.902344l38.71875-11.066406v-23.070312l-3.976562-2.3125c-7.527344-4.382813-12.023438-12.105469-12.023438-20.648438v-16c0-6.710938 2.839844-13.160156 7.785156-17.695312 5.015625-4.601563 11.519532-6.785157 18.382813-6.207032 12.238281 1.0625 21.832031 12.285156 21.832031 25.566406v14.335938c0 8.542969-4.496094 16.265625-12.023438 20.648438l-3.976562 2.3125v23.070312l38.71875 11.066406c10.175781 2.902344 17.28125 12.328125 17.28125 22.902344zm0 0"/><path d="m32 160h16v16h-16zm0 0"/><path d="m64 160h16v16h-16zm0 0"/><path d="m96 160h16v16h-16zm0 0"/><path d="m128 160h16v16h-16zm0 0"/><path d="m32 192h112v16h-112zm0 0"/><path d="m208 352h16v16h-16zm0 0"/><path d="m208 320h16v16h-16zm0 0"/><path d="m208 288h16v16h-16zm0 0"/><path d="m208 256h16v16h-16zm0 0"/><path d="m208 224h16v16h-16zm0 0"/><path d="m208 192h16v16h-16zm0 0"/><path d="m448 368h16v16h-16zm0 0"/><path d="m448 320h16v32h-16zm0 0"/><path d="m384 368h16v16h-16zm0 0"/><path d="m384 320h16v32h-16zm0 0"/><path d="m352 368h16v16h-16zm0 0"/><path d="m352 320h16v32h-16zm0 0"/><path d="m320 368h16v16h-16zm0 0"/><path d="m320 320h16v32h-16zm0 0"/><path d="m416 320h16v64h-16zm0 0"/><path d="m272 224h16v16h-16zm0 0"/><path d="m304 224h16v16h-16zm0 0"/><path d="m336 224h96v16h-96zm0 0"/><path d="m272 256h160v16h-160zm0 0"/><path d="m288 320h16v64h-16zm0 0"/><path d="m256 320h16v64h-16zm0 0"/><path d="m352 160h112v16h-112zm0 0"/></svg>